<svg width="170" height="85" viewBox="0 0 170 85" fill="none" xmlns="http://www.w3.org/2000/svg">
<g clip-path="url(#clip0_572_6093)">
<mask id="mask0_572_6093" style="mask-type:luminance" maskUnits="userSpaceOnUse" x="13" y="9" width="64" height="125">
<path d="M13.1152 133.771H76.0255V9.02298H13.1152V133.771Z" fill="white"/>
</mask>
<g mask="url(#mask0_572_6093)">
<path d="M43.636 66.9462C44.0103 68.4431 44.4261 69.8985 44.9251 71.3955C44.8419 69.857 44.8003 68.3184 44.8003 66.8214C44.4261 66.863 44.0518 66.9046 43.636 66.9462ZM33.9057 21.7044C29.9554 20.8312 26.005 19.9579 22.0547 19.0847C22.3873 23.2014 22.9695 27.2349 23.8012 31.102C25.215 31.0189 26.6288 30.9773 28.0426 30.8941V29.1477C29.9554 29.1477 31.8682 29.1477 33.781 29.1477C36.6086 29.1477 39.4362 29.1477 42.2638 29.1477C46.63 29.1893 50.705 30.7278 53.9485 33.3059C55.2791 31.0605 56.7345 28.9813 58.2731 27.027C50.1645 25.2805 42.0143 23.4924 33.9057 21.7044ZM45.9231 38.7116C45.133 38.2958 44.3429 38.0047 43.5113 37.7968C41.848 44.2005 41.3074 51.2696 42.0975 58.6297C43.2618 58.5049 44.3429 58.2138 45.4241 57.7149C46.1725 52.226 47.5864 47.0697 49.4576 42.2877C48.6675 40.8324 47.4616 39.5849 45.9231 38.7116Z" fill="#591765" stroke="url(#paint0_linear_572_6093)" stroke-width="0.4"/>
</g>
<mask id="mask1_572_6093" style="mask-type:luminance" maskUnits="userSpaceOnUse" x="13" y="9" width="64" height="125">
<path d="M13.0918 133.788H76.002V9.04055H13.0918V133.788Z" fill="white"/>
</mask>
<g mask="url(#mask1_572_6093)">
<path d="M23.7785 31.1196C25.1923 31.0365 26.6061 30.9949 28.0199 30.9117V45.1329V57.275C21.7825 50.206 16.5847 41.5568 13.0918 31.6186C16.6679 31.4523 20.2024 31.286 23.7785 31.1196ZM44.9024 71.4131C44.4034 69.9161 43.9876 68.4607 43.6134 66.9638C43.2807 67.0053 42.948 67.0053 42.6154 67.0053C42.4906 67.0053 42.3659 67.0053 42.1996 67.0053C41.7837 67.0053 41.3679 67.0053 40.9521 67.0053C40.1204 67.0053 39.2888 67.0053 38.4155 67.0053C40.5363 68.6271 42.6985 70.0824 44.9024 71.4131ZM42.1164 58.6473C41.2847 51.2872 41.8669 44.2181 43.5302 37.8144C41.7006 37.357 39.7878 37.3986 37.875 37.3986V54.8632V58.8136C38.3324 58.8136 38.7482 58.8136 39.2056 58.8136C40.162 58.8136 41.16 58.772 42.1164 58.6473Z" fill="#EC1C41" stroke="url(#paint1_linear_572_6093)" stroke-width="0.3"/>
</g>
<mask id="mask2_572_6093" style="mask-type:luminance" maskUnits="userSpaceOnUse" x="13" y="9" width="64" height="125">
<path d="M13.1484 133.754H76.0587V9.00638H13.1484V133.754Z" fill="white"/>
</mask>
<g mask="url(#mask2_572_6093)">
<path d="M59.4746 39.5693C63.0817 35.0151 67.1409 31.1089 71.4346 27.8857C65.4813 24.8071 59.5285 21.727 53.5752 18.6484C47.6046 15.5609 41.6336 12.4742 35.6631 9.38672C34.9233 13.4731 34.4485 17.5206 34.2021 21.4932C42.2413 23.2657 50.3204 25.0373 58.3584 26.7686L58.75 26.8535L58.502 27.168C57.0118 29.0609 55.602 31.0712 54.3076 33.2354C56.4445 34.947 58.2117 37.1254 59.4746 39.5693ZM57.4775 56.3369C58.8672 53.8208 59.5947 51.0082 59.5947 48.0957C59.5947 45.7189 59.1025 43.4245 58.1602 41.2939L58.1572 41.2871L58.1543 41.2793C57.4206 39.2821 56.154 37.4401 54.5527 35.8389C54.1007 35.3869 53.6524 34.98 53.166 34.6152L53.1582 34.6094C50.9849 32.8462 48.4847 31.6569 45.8203 31.083C44.6685 30.8362 43.4389 30.6729 42.2549 30.6729H29.5312V31.3369H41.0488C42.5281 31.3369 43.9625 31.5485 45.3496 31.8848L45.3525 31.8857C48.0086 32.5604 50.4507 33.8662 52.5957 35.6729C52.9843 35.9751 53.3283 36.3195 53.6592 36.6504C55.3855 38.3767 56.7354 40.3583 57.6221 42.5117L57.6211 42.5127C58.5066 44.622 58.9717 46.899 58.9717 49.2598C58.9717 51.7323 58.4583 54.1256 57.4775 56.3369ZM37.3896 60.9443C38.2641 60.9443 39.1685 60.9444 40.1123 60.8623V60.8613H40.1201C40.8516 60.8207 41.6285 60.6989 42.4111 60.5342C43.3446 60.3311 44.2391 60.0054 45.1367 59.5566C45.1503 59.5499 45.1632 59.5427 45.1797 59.5332C45.1941 59.5249 45.2175 59.5119 45.2412 59.5C45.279 59.4811 45.3233 59.4643 45.376 59.4551C45.4826 59.397 45.5883 59.3376 45.6924 59.2754C45.603 59.3147 45.5141 59.353 45.4248 59.3887L45.4199 59.3906L45.0391 59.5273C44.1504 59.8328 43.2603 60.0419 42.3691 60.1533H42.3682C41.4411 60.2795 40.5575 60.3213 39.7188 60.3213H36.4326V37.4922H35.7686V60.9443H37.3896ZM45.8252 57.2383L45.833 57.2334C49.0642 55.4158 50.7793 51.7267 50.7793 48.0537C50.7792 46.2774 50.3727 44.4708 49.5684 42.876C47.8601 47.351 46.5885 52.1508 45.8203 57.2422L45.8252 57.2383ZM45.1279 69.4756C45.3355 68.602 45.5563 67.7335 45.7803 66.8779C45.5561 66.9202 45.3256 66.9599 45.084 66.9893C45.0862 67.818 45.1016 68.6468 45.1279 69.4756Z" fill="#361347" stroke="url(#paint2_linear_572_6093)" stroke-width="0.5"/>
</g>
</g>
<path d="M76.424 63.32C74.3973 63.32 72.6587 62.9893 71.208 62.328C69.7787 61.6667 68.6587 60.696 67.848 59.416C67.0587 58.136 66.6213 56.5467 66.536 54.648C66.5147 53.7733 66.504 52.8347 66.504 51.832C66.504 50.8293 66.5147 49.8693 66.536 48.952C66.6213 47.096 67.0693 45.528 67.88 44.248C68.6907 42.9467 69.8213 41.9653 71.272 41.304C72.7227 40.6213 74.44 40.28 76.424 40.28C77.832 40.28 79.1333 40.4613 80.328 40.824C81.5227 41.1653 82.568 41.6773 83.464 42.36C84.36 43.0213 85.0533 43.832 85.544 44.792C86.056 45.7307 86.3227 46.7973 86.344 47.992C86.3653 48.184 86.3013 48.344 86.152 48.472C86.024 48.6 85.864 48.664 85.672 48.664H81.352C81.0747 48.664 80.8613 48.6107 80.712 48.504C80.5627 48.376 80.4347 48.152 80.328 47.832C80.0293 46.7013 79.5387 45.9333 78.856 45.528C78.1947 45.1013 77.3733 44.888 76.392 44.888C75.2187 44.888 74.2907 45.2187 73.608 45.88C72.9253 46.52 72.552 47.5973 72.488 49.112C72.424 50.8613 72.424 52.6533 72.488 54.488C72.552 56.0027 72.9253 57.0907 73.608 57.752C74.2907 58.392 75.2187 58.712 76.392 58.712C77.3733 58.712 78.2053 58.4987 78.888 58.072C79.5707 57.6453 80.0507 56.8773 80.328 55.768C80.4133 55.448 80.5307 55.2347 80.68 55.128C80.8507 55 81.0747 54.936 81.352 54.936H85.672C85.864 54.936 86.024 55 86.152 55.128C86.3013 55.256 86.3653 55.416 86.344 55.608C86.3227 56.8027 86.056 57.88 85.544 58.84C85.0533 59.7787 84.36 60.5893 83.464 61.272C82.568 61.9333 81.5227 62.4453 80.328 62.808C79.1333 63.1493 77.832 63.32 76.424 63.32ZM88.1475 63C87.9768 63 87.8168 62.936 87.6675 62.808C87.5395 62.6587 87.4755 62.4987 87.4755 62.328C87.4755 62.2213 87.4862 62.1253 87.5075 62.04L95.0275 41.496C95.0915 41.2613 95.2195 41.0587 95.4115 40.888C95.6248 40.696 95.9128 40.6 96.2755 40.6H101.012C101.374 40.6 101.652 40.696 101.844 40.888C102.057 41.0587 102.196 41.2613 102.26 41.496L109.748 62.04C109.79 62.1253 109.812 62.2213 109.812 62.328C109.812 62.4987 109.737 62.6587 109.588 62.808C109.46 62.936 109.3 63 109.108 63H105.172C104.852 63 104.606 62.9253 104.436 62.776C104.286 62.6053 104.19 62.456 104.148 62.328L102.9 59.064H94.3555L93.1395 62.328C93.0968 62.456 93.0008 62.6053 92.8515 62.776C92.7022 62.9253 92.4462 63 92.0835 63H88.1475ZM95.6675 54.456H101.62L98.6115 46.008L95.6675 54.456ZM120.342 63.32C118.209 63.32 116.438 63.0213 115.03 62.424C113.622 61.8053 112.555 61.0053 111.83 60.024C111.105 59.0427 110.721 57.9973 110.678 56.888C110.678 56.7173 110.742 56.568 110.87 56.44C111.019 56.2907 111.19 56.216 111.382 56.216H115.414C115.713 56.216 115.937 56.2693 116.086 56.376C116.257 56.4827 116.406 56.6213 116.534 56.792C116.705 57.112 116.939 57.4213 117.238 57.72C117.558 58.0187 117.963 58.264 118.454 58.456C118.966 58.6267 119.595 58.712 120.342 58.712C121.579 58.712 122.507 58.52 123.126 58.136C123.766 57.752 124.086 57.2293 124.086 56.568C124.086 56.0987 123.915 55.7147 123.574 55.416C123.233 55.096 122.678 54.8187 121.91 54.584C121.163 54.328 120.161 54.072 118.902 53.816C117.281 53.4747 115.894 53.0373 114.742 52.504C113.611 51.9493 112.747 51.2347 112.15 50.36C111.553 49.464 111.254 48.3547 111.254 47.032C111.254 45.7307 111.617 44.568 112.342 43.544C113.089 42.52 114.123 41.72 115.446 41.144C116.769 40.568 118.337 40.28 120.15 40.28C121.622 40.28 122.913 40.472 124.022 40.856C125.153 41.24 126.102 41.752 126.87 42.392C127.638 43.032 128.214 43.7147 128.598 44.44C129.003 45.144 129.217 45.8373 129.238 46.52C129.238 46.6907 129.174 46.8507 129.046 47C128.918 47.128 128.758 47.192 128.566 47.192H124.342C124.107 47.192 123.905 47.1493 123.734 47.064C123.563 46.9787 123.414 46.84 123.286 46.648C123.158 46.1787 122.817 45.7733 122.262 45.432C121.729 45.0693 121.025 44.888 120.15 44.888C119.211 44.888 118.475 45.0587 117.942 45.4C117.43 45.72 117.174 46.2213 117.174 46.904C117.174 47.3307 117.313 47.704 117.59 48.024C117.889 48.344 118.369 48.6213 119.03 48.856C119.713 49.0907 120.641 49.336 121.814 49.592C123.755 49.9547 125.323 50.4133 126.518 50.968C127.713 51.5013 128.587 52.2053 129.142 53.08C129.697 53.9333 129.974 55.0107 129.974 56.312C129.974 57.7627 129.558 59.0213 128.726 60.088C127.915 61.1333 126.785 61.9333 125.334 62.488C123.883 63.0427 122.219 63.32 120.342 63.32ZM133.978 63C133.743 63 133.551 62.9253 133.402 62.776C133.252 62.6267 133.178 62.4347 133.178 62.2V41.4C133.178 41.1653 133.252 40.9733 133.402 40.824C133.551 40.6747 133.743 40.6 133.978 40.6H138.106C138.34 40.6 138.532 40.6747 138.682 40.824C138.831 40.9733 138.906 41.1653 138.906 41.4V49.112H146.81V41.4C146.81 41.1653 146.884 40.9733 147.034 40.824C147.183 40.6747 147.375 40.6 147.61 40.6H151.738C151.972 40.6 152.164 40.6747 152.314 40.824C152.463 40.9733 152.538 41.1653 152.538 41.4V62.2C152.538 62.4347 152.463 62.6267 152.314 62.776C152.164 62.9253 151.972 63 151.738 63H147.61C147.375 63 147.183 62.9253 147.034 62.776C146.884 62.6267 146.81 62.4347 146.81 62.2V54.232H138.906V62.2C138.906 62.4347 138.831 62.6267 138.682 62.776C138.532 62.9253 138.34 63 138.106 63H133.978Z" fill="white"/>
<defs>
<linearGradient id="paint0_linear_572_6093" x1="25.6897" y1="71.3955" x2="51.4701" y2="17.8115" gradientUnits="userSpaceOnUse">
<stop stop-color="white" stop-opacity="0"/>
<stop offset="1" stop-color="white"/>
</linearGradient>
<linearGradient id="paint1_linear_572_6093" x1="25.4998" y1="70.4879" x2="43.0678" y2="25.2933" gradientUnits="userSpaceOnUse">
<stop stop-color="white" stop-opacity="0"/>
<stop offset="1" stop-color="white"/>
</linearGradient>
<linearGradient id="paint2_linear_572_6093" x1="29.9123" y1="71.3818" x2="64.5935" y2="24.5021" gradientUnits="userSpaceOnUse">
<stop stop-color="white" stop-opacity="0"/>
<stop offset="1" stop-color="white"/>
</linearGradient>
<clipPath id="clip0_572_6093">
<rect width="85" height="85" fill="white"/>
</clipPath>
</defs>
</svg>
